<?xml version="1.0" encoding="UTF-8"?>
<!DOCTYPE svg PUBLIC "-//W3C//DTD SVG 1.1//EN" "http://www.w3.org/Graphics/SVG/1.1/DTD/svg11.dtd">
<!-- Creator: CorelDRAW 2020 (64-Bit) -->
<svg xmlns="http://www.w3.org/2000/svg" xml:space="preserve" width="10.8071mm" height="8.3996mm" version="1.1" style="shape-rendering:geometricPrecision; text-rendering:geometricPrecision; image-rendering:optimizeQuality; fill-rule:evenodd; clip-rule:evenodd"
viewBox="0 0 306.54 238.26"
 xmlns:xlink="http://www.w3.org/1999/xlink"
 xmlns:xodm="http://www.corel.com/coreldraw/odm/2003">
 <defs>
  <style type="text/css">
   <![CDATA[
    .fil1 {fill:black;fill-rule:nonzero}
    .fil0 {fill:#2196F3;fill-rule:nonzero}
   ]]>
  </style>
 </defs>
 <g id="Слой_x0020_1">
  <metadata id="CorelCorpID_0Corel-Layer"/>
  <polygon class="fil0" points="61.86,0.39 86.83,0.39 102.64,46.25 118.64,0.39 143.42,0.39 119.61,63.42 137.18,107.52 176.4,0 205.66,0 150.25,138.54 127.03,138.54 102.64,80.4 78.44,138.54 55.22,138.54 -0,0 28.88,0 68.29,107.52 85.47,63.42 "/>
  <path class="fil1" d="M289.76 134.45c-0.91,-0.91 -2.6,-2.15 -5.07,-3.71 -2.34,-1.56 -5.27,-3.06 -8.78,-4.49 -3.38,-1.43 -7.09,-2.67 -11.12,-3.71 -4.03,-1.17 -8.13,-1.76 -12.29,-1.76 -7.28,0 -12.81,1.37 -16.59,4.1 -3.64,2.73 -5.46,6.57 -5.46,11.51 0,3.77 1.17,6.76 3.51,8.97 2.34,2.21 5.85,4.1 10.54,5.66 4.68,1.56 10.53,3.25 17.56,5.07 9.11,2.21 16.98,4.94 23.61,8.19 6.77,3.12 11.9,7.28 15.41,12.49 3.64,5.07 5.46,11.84 5.46,20.3 0,7.41 -1.36,13.79 -4.1,19.12 -2.73,5.2 -6.5,9.43 -11.32,12.68 -4.81,3.25 -10.28,5.66 -16.39,7.22 -6.11,1.43 -12.62,2.15 -19.51,2.15 -6.89,0 -13.79,-0.71 -20.68,-2.15 -6.89,-1.43 -13.53,-3.45 -19.9,-6.05 -6.37,-2.73 -12.23,-5.99 -17.56,-9.76l11.9 -23.22c1.17,1.17 3.25,2.73 6.24,4.68 2.99,1.82 6.63,3.71 10.93,5.66 4.29,1.82 8.98,3.38 14.05,4.68 9.03,2.31 23.97,3.5 32,-1.76 3.77,-2.47 5.66,-5.99 5.66,-10.54 0,-4.16 -1.49,-7.41 -4.49,-9.76 -2.99,-2.34 -7.15,-4.36 -12.49,-6.05 -5.33,-1.82 -11.64,-3.77 -18.93,-5.85 -8.71,-2.47 -16,-5.2 -21.85,-8.19 -5.85,-3.12 -10.21,-7.03 -13.07,-11.71 -2.86,-4.68 -4.29,-10.54 -4.29,-17.56 0,-9.5 2.21,-17.43 6.63,-23.81 4.55,-6.5 10.67,-11.38 18.34,-14.63 7.68,-3.38 16.19,-5.07 25.56,-5.07 6.51,0 12.62,0.72 18.34,2.15 5.85,1.43 11.32,3.32 16.39,5.66 5.07,2.34 9.63,4.88 13.66,7.61l-11.9 21.86z"/>
 </g>
</svg>
